<svg viewBox="0 0 1024 1024" width="1024" height="1024" xmlns="http://www.w3.org/2000/svg">
  <defs>
    <clipPath id="squircle"><rect x="88" y="88" width="848" height="848" rx="190"/></clipPath>
    <radialGradient id="bg" cx="50%" cy="30%" r="84%">
      <stop offset="0" stop-color="#3c4c7d"/>
      <stop offset="0.5" stop-color="#26315a"/>
      <stop offset="1" stop-color="#161d35"/>
    </radialGradient>
    <radialGradient id="vglow" cx="50%" cy="50%" r="50%">
      <stop offset="0" stop-color="#aee0ff" stop-opacity="0.7"/>
      <stop offset="0.45" stop-color="#4ea6ee" stop-opacity="0.2"/>
      <stop offset="1" stop-color="#4ea6ee" stop-opacity="0"/>
    </radialGradient>
    <linearGradient id="rail" x1="0" y1="800" x2="0" y2="231" gradientUnits="userSpaceOnUse">
      <stop offset="0" stop-color="#3f8fdd"/>
      <stop offset="0.55" stop-color="#79bdf5"/>
      <stop offset="1" stop-color="#d6ecff"/>
    </linearGradient>
  </defs>
  <g transform="translate(512,512) scale(1.035) translate(-512,-512)">
  <g clip-path="url(#squircle)">
    <rect x="88" y="88" width="848" height="848" fill="url(#bg)"/>
    <ellipse cx="512" cy="296" rx="290" ry="225" fill="url(#vglow)"/>
    <!-- Brand "runway" mark (src/renderer/icons.js): thinner rails, smaller dots -->
    <g transform="translate(104,10.5) scale(34)" color="#f4f9ff" stroke="url(#rail)" fill="none">
      <path d="M2.5 23 11 6.5" stroke-width="0.62" stroke-linecap="butt"/>
      <path d="M21.5 23 13 6.5" stroke-width="0.62" stroke-linecap="butt"/>
      <circle cx="12" cy="20.5" r="0.68" fill="currentColor" stroke="none"/>
      <circle cx="12" cy="17" r="0.56" fill="currentColor" stroke="none"/>
      <circle cx="12" cy="13.8" r="0.44" fill="currentColor" stroke="none"/>
      <circle cx="12" cy="11" r="0.33" fill="currentColor" stroke="none"/>
      <circle cx="12" cy="8.6" r="0.25" fill="currentColor" stroke="none"/>
      <circle cx="12" cy="6.7" r="0.18" fill="currentColor" stroke="none"/>
    </g>
    <rect x="88" y="88" width="848" height="8" fill="#ffffff" opacity="0.10"/>
  </g>
  </g>
</svg>
